# xmcd
#
# Track frame offsets: 
#        182
#        24322
#        47222
#        70600
#        89475
#        111207
#        134922
#        158872
#        178850
#        203615
#        224030
#        246697
#
# Disc length: 3554 seconds
#
# Revision: 2
# Processed by: cddbd v1.5.2PL0 Copyright (c) Steve Scherf et al.
# Submitted via: ExactAudioCopy v0.99pb5
#
DISCID=bb0de00c
DTITLE=Elio Revé y su charangon - Vol  1
DYEAR=1994
DGENRE=Salsa
TTITLE0=Mi salsa tiene sandunga
TTITLE1=El Iblano
TTITLE2=Llegó el Charangul
TTITLE3=Cualquier cantidad
TTITLE4=Maria Ramos
TTITLE5=¡Que te Importa a ti!
TTITLE6=Recuerdos de aquel solar
TTITLE7=Suave suavito
TTITLE8=Reir y catar
TTITLE9=Anda y recógela
TTITLE10=Gente Chévere
TTITLE11=Truncando mis sueños
EXTD=YEAR: 1994
EXTT0=
EXTT1=
EXTT2=
EXTT3=
EXTT4=
EXTT5=
EXTT6=
EXTT7=
EXTT8=
EXTT9=
EXTT10=
EXTT11=
PLAYORDER=
